<svg width="100" height="29" viewBox="0 0 100 29" fill="none" xmlns="http://www.w3.org/2000/svg">
<path d="M35.1 4.10001L43.9 28.4H38.5L29.7 4.10001H35.1ZM65.7 18.4C65.7 12.5 60.9 7.80001 54.9 7.80001C48.8 7.80001 44 12.5 44 18.4C44 24.3 48.8 29 54.9 29C60.9 29 65.7 24.3 65.7 18.4ZM60.7 18.4C60.7 21.9 58.2 24.4 54.9 24.4C51.6 24.4 49.1 21.9 49.1 18.4C49.1 14.9 51.6 12.3 54.9 12.3C58.2 12.3 60.7 14.9 60.7 18.4ZM93.8 8.10001L89.1 20.9L84.5 8.10001H80.4L75.7 20.9L71 8.10001H65.7L73 28.4H77.6L82.5 15.2L87.4 28.4H91.9L99.2 8.10001H93.8V8.10001Z" fill="white"/>
<path d="M10.4 9L13 16.3H7.8L10.4 9ZM7.4 4.1L0 24.3H4.9L6.4 20.2H14.3L15.8 24.3H20.7L13.4 4.1H7.4ZM17.3 0L26.1 24.3H31.5L22.7 0H17.3Z" fill="white"/>
</svg>
