<svg width="77" height="36" viewBox="0 0 77 36" fill="none" xmlns="http://www.w3.org/2000/svg">
<path d="M35.7 35.6H12V11.9C12 11.9 12 11.9 12.1 11.9C15.4 23.2 24.4 32.1 35.7 35.4C35.7 35.4 35.7 35.5 35.7 35.6C35.7 35.6 35.7 35.5 35.7 35.6Z" fill="white"/>
<path d="M42.6 19.2V19.4H39.4V19.2H40.3V11.8H39.4V11.6H42.7H43V11.9C42.9 11.9 42.7 11.9 42.5 11.9H41.6V15.3H42.4C42.6 15.3 42.8 15.3 42.9 15.3V15.6C42.8 15.6 42.7 15.6 42.5 15.6H41.5V19.4H42.6V19.2ZM56.3 16.9H56.4C56.7 17.5 56.9 18 57.3 18.4C57.6 18.7 57.9 19 58.3 19.1C58.5 19.2 58.6 19.2 58.8 19.3C59 19.3 59.2 19.3 59.3 19.3H59.4C59.4 19.3 59.4 19.3 59.5 19.3C59.9 19.3 60.2 19.2 60.5 18.9C60.8 18.6 61 18.3 61 17.9V17.6C61 17.5 61 17.4 60.9 17.2C60.8 17 60.7 16.8 60.5 16.7C60.3 16.5 60.1 16.4 59.7 16.3L58.3 15.9C57.8 15.8 57.5 15.5 57.1 15.2C56.7 14.8 56.6 14.3 56.6 13.5C56.6 12.9 56.8 12.4 57.2 12C57.6 11.6 58.1 11.5 58.7 11.5C59 11.5 59.2 11.5 59.4 11.6C59.6 11.6 59.8 11.7 59.9 11.7C60 11.7 60.1 11.8 60.2 11.8C60.2 11.8 60.3 11.8 60.4 11.8C60.4 11.8 60.4 11.8 60.5 11.8H60.6C60.7 11.8 60.7 11.8 60.8 11.7C60.8 11.7 60.9 11.6 60.9 11.5H61.1V13.4H61C60.8 12.9 60.5 12.5 60.3 12.3C60 12 59.7 11.8 59.4 11.8C59.3 11.8 59.2 11.7 59 11.7C58.9 11.7 58.8 11.7 58.6 11.7C58.1 11.7 57.8 11.8 57.5 12.1C57.2 12.4 57.1 12.7 57.1 13.1C57.1 13.5 57.2 13.8 57.4 14.1C57.6 14.3 57.9 14.4 58.1 14.5C58.1 14.5 58.2 14.5 58.3 14.6C58.3 14.6 58.4 14.6 58.5 14.6L59.7 14.9C60.2 15 60.6 15.3 60.8 15.5C61.1 15.8 61.3 16 61.3 16.3C61.3 16.5 61.4 16.6 61.4 16.8C61.4 16.9 61.4 17.1 61.4 17.2C61.4 17.8 61.2 18.4 60.8 18.8C60.4 19.3 59.8 19.5 59.2 19.5C58.8 19.5 58.6 19.5 58.3 19.4C58.1 19.4 57.8 19.3 57.7 19.2C57.7 19.2 57.6 19.2 57.6 19.1C57.6 19.1 57.6 19.1 57.5 19.1C57.4 19.1 57.3 19 57.2 19C57.2 19 57.1 19 57 19C56.9 19 56.8 19 56.7 19.1C56.6 19.1 56.5 19.3 56.5 19.4H56.2V16.9H56.3ZM54.3 17.3C54.3 18 54 18.6 53.5 19C53 19.4 52.4 19.6 51.6 19.6C51.4 19.6 51.2 19.6 51.1 19.6C50.9 19.6 50.7 19.6 50.5 19.5C50 19.4 49.5 19.1 49.1 18.8C48.7 18.5 48.5 18 48.5 17.3V11.8H47.6V11.6H50.8V11.8H49.9V17.4C49.9 18 50.1 18.4 50.5 18.7C50.9 19 51.4 19.2 52 19.2C52.7 19.2 53.2 19.1 53.5 18.8C53.8 18.5 54 18.3 54 18C54 17.8 54.1 17.6 54.1 17.5V17.1V12.8C54.1 12.5 54.1 12.3 53.9 12.2C53.7 12.1 53.4 12 53.1 12V11.8H55.4V12C55 12 54.7 12.1 54.6 12.2C54.4 12.3 54.4 12.6 54.4 13.1V17.3H54.3ZM65.3 13V13.8L64.2 16.6H65.3V16.8H64.1L63.7 17.9C63.7 17.9 63.7 17.9 63.7 18V18.1C63.7 18.2 63.6 18.2 63.6 18.3C63.6 18.4 63.6 18.5 63.6 18.6C63.6 18.8 63.6 18.9 63.7 19C63.7 19.1 64 19.1 64.3 19.2V19.4H62.3V19.2C62.5 19.2 62.7 19.1 62.8 19C62.9 18.9 63.1 18.7 63.2 18.5C63.2 18.5 63.2 18.5 63.2 18.4L65.3 13ZM43 11.6H43.1C43.3 11.6 43.4 11.6 43.6 11.6C44.1 11.6 44.6 11.8 45.1 12C45.6 12.2 45.8 12.7 45.8 13.3C45.8 13.8 45.6 14.2 45.2 14.6C44.8 15 44.2 15.1 43.3 15.2C44.2 15.3 44.8 15.6 45 15.9C45.2 16.3 45.4 16.9 45.5 17.8V18C45.5 18 45.5 18.1 45.5 18.2V18.3V18.4C45.5 18.5 45.6 18.7 45.6 18.8C45.6 18.9 45.7 19 45.9 19H46H46.1C46.1 19 46.2 19 46.2 18.9C46.2 18.9 46.3 18.9 46.3 18.8C46.3 18.8 46.4 18.8 46.4 18.7C46.4 18.7 46.5 18.7 46.5 18.6L46.7 18.8C46.5 19.1 46.2 19.3 46 19.3C45.8 19.3 45.6 19.4 45.4 19.4C44.9 19.4 44.6 19.3 44.4 19C44.2 18.8 44 18.3 43.9 17.5C43.8 16.4 43.6 15.7 43.4 15.5C43.3 15.4 43 15.3 42.7 15.2V14.9C43 14.9 43.2 14.8 43.5 14.6C43.9 14.4 44.1 13.9 44.1 13.1C44.1 12.5 43.9 12.1 43.6 11.9C43.4 11.8 43.1 11.7 42.7 11.6V11.6H43ZM71 11.8H70.1V11.6H73.3V11.8H72.3V19.2H73.7C73.7 19.2 73.8 19.2 73.9 19.2H74.1C74.5 19.1 74.9 18.8 75.3 18.4C75.7 18 75.9 17.5 76.1 16.9H76.3L75.9 19.4H70V19.2H71V11.8ZM65.3 16.8V16.6H66.4L65.4 13.6V13.8V13L65.9 11.6H66L68.8 19.2H69.6V19.4H66.3V19.2H67.3L66.4 16.7H65.3V16.8Z" fill="white"/>
<path d="M31.8 0H0V19.9H7.9C6.6 18.3 5.9 16.2 5.9 14C5.9 8.5 10.4 4 15.8 4C21.3 4 25.7 8.5 25.7 14C25.7 16.2 24.9 18.3 23.7 19.9H31.7V0H31.8Z" fill="white"/>
</svg>
